<svg xmlns="http://www.w3.org/2000/svg" xmlns:xlink="http://www.w3.org/1999/xlink" viewBox="0 0 703.6 165.7" xmlns:v="https://vecta.io/nano"><path fill="#fff" d="M168.8 67.4c.4-.4.7-.8 1-1.2l3.5-5.3c-1.8-1.7-3.7-3.3-5.8-4.7a3.04 3.04 0 0 0-.7-.5l-1.6-1.1c-5.3-3.3-11.4-5.1-20-5-19.4 0-33.5 14.9-33.5 33.1v.2c0 18.9 13.7 32.9 33.6 32.9 7.9 0 15.7-2.2 22.4-6.4 3.4-2 4.9-4.8 4.9-8.9V77.8h-29.2V84c0 3.3 2.7 6 6.1 6h9.5v9.1c-3.9 2.6-8.5 4-13.2 3.8-11.3 0-19.4-8.6-19.4-20.3v-.2c0-10.9 8.1-19.9 18.4-19.9 5-.2 10 1.4 14 4.4l.7.5c2.4 2.5 6.6 2.5 9.3 0zm102 0c.4-.4.7-.8 1-1.2 0 0 2.6-3.7 3.5-5.3-1.8-1.7-3.7-3.3-5.8-4.7a3.04 3.04 0 0 0-.7-.5c-.5-.3-1.5-1-1.6-1-5.3-3.3-11.4-5.1-20-5-19.4 0-33.5 14.9-33.5 33.1v.2c0 18.9 13.7 32.9 33.6 32.9 7.9 0 15.7-2.2 22.4-6.4 3.4-2 4.9-4.8 4.9-8.9V77.8h-29.3V84a6.02 6.02 0 0 0 6 6h9.6v9.1c-3.9 2.6-8.5 4-13.2 3.8-11.3 0-19.4-8.6-19.4-20.3v-.2c0-10.9 8.1-19.9 18.4-19.9 5-.1 10 1.4 14 4.4l.7.5c2 2.2 6.6 2.9 9.4 0zm161-17.1a6.49 6.49 0 0 0-6.5 6.5v6.3h20v52.4h7.4c3.5.2 6.5-2.5 6.7-6.1V63.1h13.5c3.5.1 6.4-2.7 6.5-6.2v-6.6h-47.6zm-245.2 7.1v58.1h7.3c4.1 0 6.9-2.8 6.9-6.3V50.3h-7.2c-3.9.1-7 3.2-7 7.1zm-110-7.1h-7.4c-3.9.1-7 3.3-6.9 7.2v58h40.8c3.5.1 6.5-2.8 6.5-6.3v-6.7h-33V50.3zM0 57.5v58h43.8c3.5 0 6.4-2.8 6.4-6.3v-6.7h-36V89.1H39c3.5 0 6.4-2.8 6.4-6.3s-2.9-6.4-6.4-6.4H14.2V63.1h29.5c3.5 0 6.4-2.8 6.4-6.3v-6.5h-43c-3.9 0-7.1 3.1-7.2 7 .1.1.1.1.1.2zm489.5 0v58h43.7c3.5 0 6.4-2.8 6.4-6.3v-6.7h-35.9V89.1h24.9c3.5 0 6.4-2.8 6.4-6.3s-2.9-6.4-6.4-6.4h-24.9V63.1h29.5c3.5 0 6.4-2.8 6.4-6.3v-6.5h-43c-3.9 0-7.1 3.2-7.1 7.2 0-.1 0-.1 0 0zm-81.7-7.1c-3.7 0-6.7 2.9-6.7 7.2v33L374 54.5c-1.9-2.5-3.9-4.1-7.3-4.1h-1.5c-3.8 0-6.9 3.1-7 6.9v58.2h7.3c3.5.2 6.5-2.5 6.7-6V74l28.2 37.3c1.9 2.5 3.9 4.1 7.3 4.1h.5c3.9 0 7-3.1 7-6.9V50.3l-7.4.1zm-83.7 5c-1.6-3.5-4.3-5.6-8.1-5.6h-.8c-3.6 0-6.9 2.2-8.3 5.6l-24.5 55.7s3.5 3.2 5.5 3.9c.8.3 1.6.5 2.4.4 2.9 0 5.5-1.7 6.5-4.4l3.5-8.4h30.1l3.3 7.9c1.3 2.9 3.5 4.9 6.8 4.9 1 0 2-.2 2.9-.7 1.9-1.1 3.7-2.3 5.4-3.8l-24.7-55.5zm-18.6 34.4l9.7-23.1 9.7 23.1h-19.4zm294.8-39.5c-3.7 0-6.7 2.9-6.7 7.2v33l-27.1-36.1c-1.9-2.5-3.9-4.1-7.3-4.1h-1.5c-3.8 0-7 3.1-7 6.9v58.3h7.2c3.5.2 6.5-2.5 6.7-6V74l28.2 37.3c1.9 2.5 3.9 4.1 7.3 4.1h.5c3.8 0 7-3.1 7-6.9V50.3h-7.3z"/><path d="M661.3 93.3l-19.1 20.3c-8.4 8.6-13.3 20.1-13.6 32.1v1.9c0 4.3.6 8.7 1.7 12.9l1.4 4.4 40.3-41c10.5-10.5 10.5-27.5 0-38l-5-5-2.1-2.2c1.2 5.1-.1 10.5-3.6 14.6m-30.9-89c-1.9 8.8-1.5 17.9 1 26.5 3.3 11.8 12.9 22.6 12.9 22.6l39.8 40c4 4 5.8 9.8 4.7 15.4l1.8-2 5.1-5c4.4-4.4 7.2-10.2 7.8-16.4.1-.8.1-1.6.1-2.4v-.2c0-7.1-2.9-13.9-7.9-18.9L631.3 0l-.9 4.3z" fill="#93d500"/><defs><path id="A" d="M661.3 93.3l-19.1 20.3c-8.4 8.6-13.3 20.1-13.6 32.1v1.9c0 4.3.6 8.7 1.7 12.9l1.4 4.4 40.3-41c10.5-10.5 10.5-27.5 0-38l-5-5-2.1-2.2c1.2 5.1-.1 10.5-3.6 14.6"/></defs><clipPath id="B"><use xlink:href="#A"/></clipPath><g clip-path="url(#B)"><linearGradient id="C" x1="620.664" x2="674.923" y1="166.402" y2="94.918" gradientUnits="userSpaceOnUse"><stop offset="0" stop-color="#006d46" stop-opacity="0"/><stop offset=".17" stop-color="#006d46" stop-opacity=".05"/><stop offset=".37" stop-color="#006d46" stop-opacity=".18"/><stop offset=".59" stop-color="#006d46" stop-opacity=".41"/><stop offset=".83" stop-color="#006d46" stop-opacity=".72"/><stop offset="1" stop-color="#006d46"/></linearGradient><path fill="url(#C)" d="M587 133.3l60.6-79.7 74.5 56.5-60.6 79.8z"/></g><defs><path id="D" d="M630.4 4.3c-1.9 8.8-1.5 17.9 1 26.5 3.3 11.8 12.9 22.6 12.9 22.6l39.8 40c4 4 5.8 9.8 4.7 15.4l1.8-2 5.1-5c4.4-4.4 7.2-10.2 7.8-16.4.1-.8.1-1.7.1-2.5v-.2c0-7.1-2.9-13.9-7.9-18.9L631.3 0l-.9 4.3z"/></defs><clipPath id="E"><use xlink:href="#D"/></clipPath><g clip-path="url(#E)"><linearGradient id="F" x1="692.199" x2="637.146" y1="85.197" y2="21.866" gradientUnits="userSpaceOnUse"><stop offset="0" stop-color="#006d46" stop-opacity="0"/><stop offset=".17" stop-color="#006d46" stop-opacity=".05"/><stop offset=".37" stop-color="#006d46" stop-opacity=".18"/><stop offset=".59" stop-color="#006d46" stop-opacity=".41"/><stop offset=".83" stop-color="#006d46" stop-opacity=".72"/><stop offset="1" stop-color="#006d46"/></linearGradient><path fill="url(#F)" d="M573.3 46.9l97.4-84.7L757.5 62l-97.4 84.7z"/></g></svg>